<svg width="175" height="35" viewBox="0 0 175 35" fill="none" xmlns="http://www.w3.org/2000/svg">
<path d="M45.9272 9.53866H48.4526V26.8995H45.9272V9.53866Z" fill="white"/>
<path d="M60.5384 13.6309C62.2388 13.6309 63.5857 14.1186 64.579 15.0941C65.5892 16.0531 66.0943 17.4668 66.0943 19.3351V26.8995H63.6699V19.6079C63.6699 18.3348 63.3584 17.3758 62.7355 16.731C62.1126 16.0862 61.2203 15.7637 60.0586 15.7637C58.7454 15.7637 57.71 16.144 56.9523 16.9046C56.1947 17.6486 55.8159 18.7234 55.8159 20.1287V26.8995H53.3915V13.7549H55.7149V15.7389C56.2031 15.0611 56.8597 14.5402 57.6847 14.1765C58.5265 13.8127 59.4777 13.6309 60.5384 13.6309Z" fill="white"/>
<path d="M78.1066 26.1306C77.7531 26.4282 77.3153 26.6597 76.7934 26.8251C76.2715 26.9739 75.7328 27.0483 75.1772 27.0483C73.8303 27.0483 72.7865 26.6928 72.0457 25.9818C71.3049 25.2709 70.9345 24.254 70.9345 22.9313V15.7141H68.6617V13.7549H70.9345V10.8779H73.3589V13.7549H77.1975V15.7141H73.3589V22.8321C73.3589 23.543 73.5357 24.0887 73.8892 24.469C74.2596 24.8492 74.7815 25.0394 75.455 25.0394C76.1957 25.0394 76.8271 24.8327 77.349 24.4193L78.1066 26.1306Z" fill="white"/>
<path d="M92.6904 20.4016C92.6904 20.5834 92.6735 20.8232 92.6398 21.1208H81.7807C81.9322 22.2782 82.4457 23.2124 83.3212 23.9233C84.2135 24.6178 85.3162 24.965 86.6294 24.965C88.2288 24.965 89.5168 24.4359 90.4933 23.3777L91.8317 24.9154C91.2256 25.6098 90.468 26.1389 89.5589 26.5026C88.6666 26.8664 87.6648 27.0483 86.5537 27.0483C85.1394 27.0483 83.8852 26.7672 82.7908 26.205C81.6965 25.6263 80.8463 24.8244 80.2402 23.7993C79.6509 22.7742 79.3563 21.6168 79.3563 20.3272C79.3563 19.054 79.6425 17.9049 80.2149 16.8798C80.8042 15.8547 81.6039 15.0611 82.614 14.4989C83.641 13.9202 84.7943 13.6309 86.0738 13.6309C87.3534 13.6309 88.4898 13.9202 89.4831 14.4989C90.4933 15.0611 91.2761 15.8547 91.8317 16.8798C92.4041 17.9049 92.6904 19.0788 92.6904 20.4016ZM86.0738 15.6397C84.9122 15.6397 83.9357 15.987 83.1444 16.6814C82.3699 17.3758 81.9154 18.2852 81.7807 19.4095H90.367C90.2323 18.3017 89.7693 17.4006 88.978 16.7062C88.2036 15.9952 87.2355 15.6397 86.0738 15.6397Z" fill="white"/>
<path d="M96.0568 8.49702H98.4812V26.8995H96.0568V8.49702Z" fill="white"/>
<path d="M103.11 8.49702H105.535V26.8995H103.11V8.49702Z" fill="white"/>
<path d="M110.163 13.7549H112.588V26.8995H110.163V13.7549ZM111.376 11.2251C110.904 11.2251 110.509 11.0763 110.189 10.7787C109.886 10.4811 109.734 10.1174 109.734 9.68747C109.734 9.25759 109.886 8.89383 110.189 8.59622C110.509 8.28207 110.904 8.125 111.376 8.125C111.847 8.125 112.234 8.27381 112.537 8.57142C112.857 8.8525 113.017 9.20798 113.017 9.63787C113.017 10.0843 112.857 10.4646 112.537 10.7787C112.234 11.0763 111.847 11.2251 111.376 11.2251Z" fill="white"/>
<path d="M123.05 27.0483C121.687 27.0483 120.466 26.7589 119.389 26.1802C118.328 25.6015 117.495 24.8079 116.889 23.7993C116.282 22.7742 115.979 21.6168 115.979 20.3272C115.979 19.0375 116.282 17.8884 116.889 16.8798C117.495 15.8547 118.328 15.0611 119.389 14.4989C120.466 13.9202 121.687 13.6309 123.05 13.6309C124.263 13.6309 125.34 13.8706 126.283 14.3501C127.243 14.8296 127.983 15.524 128.505 16.4334L126.662 17.599C126.241 16.9707 125.719 16.4995 125.096 16.1854C124.473 15.8712 123.783 15.7141 123.025 15.7141C122.15 15.7141 121.358 15.9043 120.651 16.2846C119.961 16.6649 119.414 17.2105 119.01 17.9214C118.623 18.6159 118.429 19.4178 118.429 20.3272C118.429 21.2531 118.623 22.0715 119.01 22.7825C119.414 23.4769 119.961 24.0143 120.651 24.3945C121.358 24.7748 122.15 24.965 123.025 24.965C123.783 24.965 124.473 24.8079 125.096 24.4937C125.719 24.1796 126.241 23.7084 126.662 23.0801L128.505 24.2209C127.983 25.1303 127.243 25.833 126.283 26.329C125.34 26.8085 124.263 27.0483 123.05 27.0483Z" fill="white"/>
<path d="M143.543 20.4016C143.543 20.5834 143.527 20.8232 143.493 21.1208H132.634C132.785 22.2782 133.299 23.2124 134.174 23.9233C135.067 24.6178 136.169 24.965 137.482 24.965C139.082 24.965 140.37 24.4359 141.346 23.3777L142.685 24.9154C142.079 25.6098 141.321 26.1389 140.412 26.5026C139.52 26.8664 138.518 27.0483 137.407 27.0483C135.992 27.0483 134.738 26.7672 133.644 26.205C132.55 25.6263 131.699 24.8244 131.093 23.7993C130.504 22.7742 130.209 21.6168 130.209 20.3272C130.209 19.054 130.496 17.9049 131.068 16.8798C131.657 15.8547 132.457 15.0611 133.467 14.4989C134.494 13.9202 135.647 13.6309 136.927 13.6309C138.206 13.6309 139.343 13.9202 140.336 14.4989C141.346 15.0611 142.129 15.8547 142.685 16.8798C143.257 17.9049 143.543 19.0788 143.543 20.4016ZM136.927 15.6397C135.765 15.6397 134.789 15.987 133.997 16.6814C133.223 17.3758 132.768 18.2852 132.634 19.4095H141.22C141.085 18.3017 140.622 17.4006 139.831 16.7062C139.057 15.9952 138.089 15.6397 136.927 15.6397Z" fill="white"/>
<path d="M159.006 20.4016C159.006 20.5834 158.99 20.8232 158.956 21.1208H148.097C148.248 22.2782 148.762 23.2124 149.637 23.9233C150.53 24.6178 151.632 24.965 152.946 24.965C154.545 24.965 155.833 24.4359 156.809 23.3777L158.148 24.9154C157.542 25.6098 156.784 26.1389 155.875 26.5026C154.983 26.8664 153.981 27.0483 152.87 27.0483C151.456 27.0483 150.201 26.7672 149.107 26.205C148.013 25.6263 147.162 24.8244 146.556 23.7993C145.967 22.7742 145.672 21.6168 145.672 20.3272C145.672 19.054 145.959 17.9049 146.531 16.8798C147.12 15.8547 147.92 15.0611 148.93 14.4989C149.957 13.9202 151.11 13.6309 152.39 13.6309C153.669 13.6309 154.806 13.9202 155.799 14.4989C156.809 15.0611 157.592 15.8547 158.148 16.8798C158.72 17.9049 159.006 19.0788 159.006 20.4016ZM152.39 15.6397C151.228 15.6397 150.252 15.987 149.461 16.6814C148.686 17.3758 148.231 18.2852 148.097 19.4095H156.683C156.548 18.3017 156.085 17.4006 155.294 16.7062C154.52 15.9952 153.552 15.6397 152.39 15.6397Z" fill="white"/>
<path d="M175 8.49702V26.8995H172.677V24.8162C172.138 25.5437 171.456 26.0976 170.631 26.4778C169.806 26.8581 168.897 27.0483 167.904 27.0483C166.607 27.0483 165.446 26.7672 164.419 26.205C163.392 25.6429 162.583 24.8575 161.994 23.8489C161.422 22.8238 161.136 21.6499 161.136 20.3272C161.136 19.0044 161.422 17.8388 161.994 16.8302C162.583 15.8216 163.392 15.0362 164.419 14.4741C165.446 13.9119 166.607 13.6309 167.904 13.6309C168.863 13.6309 169.747 13.8127 170.555 14.1765C171.363 14.5237 172.037 15.0445 172.576 15.7389V8.49702H175ZM168.106 24.965C168.947 24.965 169.713 24.7748 170.404 24.3945C171.094 23.9977 171.633 23.4521 172.02 22.7577C172.407 22.0467 172.601 21.2365 172.601 20.3272C172.601 19.4178 172.407 18.6159 172.02 17.9214C171.633 17.2105 171.094 16.6649 170.404 16.2846C169.713 15.9043 168.947 15.7141 168.106 15.7141C167.247 15.7141 166.472 15.9043 165.782 16.2846C165.109 16.6649 164.57 17.2105 164.166 17.9214C163.779 18.6159 163.585 19.4178 163.585 20.3272C163.585 21.2365 163.779 22.0467 164.166 22.7577C164.57 23.4521 165.109 23.9977 165.782 24.3945C166.472 24.7748 167.247 24.965 168.106 24.965Z" fill="white"/>
<path d="M0 10.5399C0 9.44161 0.910428 8.55127 2.0335 8.55127H2.8469V17.699H0V10.5399Z" fill="white"/>
<path d="M31.5193 13.125H32.3327C33.4558 13.125 34.3662 14.0153 34.3662 15.1136V23.4659H31.5193V13.125Z" fill="white"/>
<path d="M5.89722 3.57977C5.89722 3.03062 6.35243 2.58545 6.91397 2.58545H8.74411V18.2957H5.89722V3.57977Z" fill="white"/>
<path d="M11.7944 0.994539C11.7944 0.665051 12.0676 0.397949 12.4045 0.397949H14.6413V26.6479H11.7944V0.994539Z" fill="white"/>
<path d="M25.6221 2.58545H27.4522C28.0138 2.58545 28.469 3.03062 28.469 3.57977V28.8354H25.6221V2.58545Z" fill="white"/>
<path fill-rule="evenodd" clip-rule="evenodd" d="M18.3015 0C17.9645 0 17.6914 0.267102 17.6914 0.59659V35H22.5718V0.596591C22.5718 0.267103 22.2987 0 21.9618 0H18.3015ZM20.7552 4.70127H20.0168V2.40269L19.2916 2.6099V2.06303L20.6875 1.59092H20.7552V4.70127ZM20.7552 9.474H20.0168V7.17541L19.2916 7.38263V6.83575L20.6875 6.36365H20.7552V9.474ZM21.0413 13.9477C21.235 13.7198 21.3319 13.3958 21.3319 12.9757V12.4096C21.3319 11.9909 21.235 11.6669 21.0413 11.4376C20.8476 11.2083 20.5746 11.0936 20.2222 11.0936C19.8698 11.0936 19.5967 11.2076 19.403 11.4354C19.2108 11.6633 19.1147 11.9873 19.1147 12.4074V12.9757C19.1147 13.3929 19.2115 13.7162 19.4052 13.9455C19.5989 14.1748 19.8727 14.2894 20.2265 14.2894C20.5775 14.2894 20.8491 14.1755 21.0413 13.9477ZM20.5061 11.8157C20.5659 11.9254 20.5957 12.092 20.5957 12.3156V13.0846C20.5943 13.3082 20.5637 13.4727 20.504 13.5781C20.4443 13.682 20.3518 13.734 20.2265 13.734C20.0969 13.734 20.0023 13.6806 19.9426 13.5738C19.8829 13.4656 19.853 13.2954 19.853 13.0633V12.2686C19.8574 12.0606 19.888 11.9054 19.9448 11.8029C20.003 11.7003 20.0955 11.6491 20.2222 11.6491C20.3518 11.6491 20.4464 11.7046 20.5061 11.8157ZM21.3319 17.7484C21.3319 18.1685 21.235 18.4925 21.0413 18.7204C20.8491 18.9482 20.5775 19.0622 20.2265 19.0622C19.8727 19.0622 19.5989 18.9475 19.4052 18.7182C19.2115 18.489 19.1147 18.1657 19.1147 17.7484V17.1802C19.1147 16.76 19.2108 16.436 19.403 16.2082C19.5967 15.9803 19.8698 15.8664 20.2222 15.8664C20.5746 15.8664 20.8476 15.981 21.0413 16.2103C21.235 16.4396 21.3319 16.7636 21.3319 17.1823V17.7484ZM20.5957 17.0883C20.5957 16.8647 20.5659 16.6981 20.5061 16.5884C20.4464 16.4773 20.3518 16.4218 20.2222 16.4218C20.0955 16.4218 20.003 16.4731 19.9448 16.5756C19.888 16.6781 19.8574 16.8334 19.853 17.0413V17.836C19.853 18.0681 19.8829 18.2383 19.9426 18.3465C20.0023 18.4534 20.0969 18.5068 20.2265 18.5068C20.3518 18.5068 20.4443 18.4548 20.504 18.3508C20.5637 18.2454 20.5943 18.0809 20.5957 17.8573V17.0883ZM20.0168 23.7922H20.7552V20.6818H20.6875L19.2916 21.1539V21.7008L20.0168 21.4936V23.7922ZM21.3319 27.2938C21.3319 27.714 21.235 28.038 21.0413 28.2658C20.8491 28.4937 20.5775 28.6076 20.2265 28.6076C19.8727 28.6076 19.5989 28.493 19.4052 28.2637C19.2115 28.0344 19.1147 27.7111 19.1147 27.2938V26.7256C19.1147 26.3055 19.2108 25.9815 19.403 25.7536C19.5967 25.5258 19.8698 25.4118 20.2222 25.4118C20.5746 25.4118 20.8476 25.5265 21.0413 25.7558C21.235 25.9851 21.3319 26.309 21.3319 26.7277V27.2938ZM20.5957 26.6338C20.5957 26.4102 20.5659 26.2435 20.5061 26.1339C20.4464 26.0228 20.3518 25.9672 20.2222 25.9672C20.0955 25.9672 20.003 26.0185 19.9448 26.1211C19.888 26.2236 19.8574 26.3788 19.853 26.5868V27.3814C19.853 27.6136 19.8829 27.7838 19.9426 27.892C20.0023 27.9988 20.0969 28.0522 20.2265 28.0522C20.3518 28.0522 20.4443 28.0002 20.504 27.8963C20.5637 27.7909 20.5943 27.6264 20.5957 27.4028V26.6338ZM21.0413 33.0386C21.235 32.8107 21.3319 32.4867 21.3319 32.0666V31.5005C21.3319 31.0818 21.235 30.7578 21.0413 30.5285C20.8476 30.2992 20.5746 30.1846 20.2222 30.1846C19.8698 30.1846 19.5967 30.2985 19.403 30.5264C19.2108 30.7542 19.1147 31.0782 19.1147 31.4983V32.0666C19.1147 32.4838 19.2115 32.8071 19.4052 33.0364C19.5989 33.2657 19.8727 33.3804 20.2265 33.3804C20.5775 33.3804 20.8491 33.2664 21.0413 33.0386ZM20.5061 30.9066C20.5659 31.0163 20.5957 31.1829 20.5957 31.4065V32.1755C20.5943 32.3991 20.5637 32.5636 20.504 32.669C20.4443 32.773 20.3518 32.8249 20.2265 32.8249C20.0969 32.8249 20.0023 32.7715 19.9426 32.6647C19.8829 32.5565 19.853 32.3863 19.853 32.1542V31.3595C19.8574 31.1516 19.888 30.9963 19.9448 30.8938C20.003 30.7912 20.0955 30.74 20.2222 30.74C20.3518 30.74 20.4464 30.7955 20.5061 30.9066Z" fill="white"/>
</svg>
