<svg width="161" height="32" viewBox="0 0 161 32" fill="none" xmlns="http://www.w3.org/2000/svg">
<path d="M42.4902 8.72218H44.7992V24.5949H42.4902V8.72218Z" fill="#07071A"/>
<path d="M55.849 12.4636C57.4037 12.4636 58.6351 12.9096 59.5433 13.8015C60.4669 14.6782 60.9286 15.9707 60.9286 17.6789V24.5949H58.7121V17.9284C58.7121 16.7644 58.4273 15.8876 57.8578 15.298C57.2882 14.7085 56.4724 14.4137 55.4103 14.4137C54.2097 14.4137 53.263 14.7614 52.5703 15.4568C51.8776 16.137 51.5313 17.1196 51.5313 18.4045V24.5949H49.3147V12.577H51.439V14.391C51.8853 13.7712 52.4857 13.295 53.2399 12.9625C54.0096 12.6299 54.8793 12.4636 55.849 12.4636Z" fill="#07071A"/>
<path d="M71.9114 23.892C71.5881 24.1641 71.1879 24.3757 70.7107 24.5269C70.2336 24.6629 69.741 24.731 69.233 24.731C68.0016 24.731 67.0472 24.4059 66.37 23.7559C65.6927 23.1059 65.354 22.1762 65.354 20.9669V14.3683H63.276V12.577H65.354V9.94665H67.5706V12.577H71.0802V14.3683H67.5706V20.8762C67.5706 21.5262 67.7322 22.025 68.0555 22.3727C68.3941 22.7204 68.8713 22.8943 69.487 22.8943C70.1643 22.8943 70.7415 22.7053 71.2187 22.3274L71.9114 23.892Z" fill="#07071A"/>
<path d="M85.2451 18.654C85.2451 18.8203 85.2297 19.0395 85.1989 19.3116H75.2705C75.409 20.3697 75.8785 21.2238 76.679 21.8739C77.4948 22.5088 78.503 22.8262 79.7036 22.8262C81.166 22.8262 82.3435 22.3425 83.2363 21.375L84.46 22.7809C83.9059 23.4158 83.2132 23.8995 82.382 24.2321C81.5662 24.5647 80.6503 24.731 79.6344 24.731C78.3414 24.731 77.1946 24.474 76.1941 23.96C75.1935 23.4309 74.4162 22.6977 73.8621 21.7605C73.3233 20.8232 73.0539 19.7651 73.0539 18.5859C73.0539 17.4219 73.3156 16.3713 73.839 15.4341C74.3777 14.4968 75.1089 13.7712 76.0325 13.2572C76.9714 12.7282 78.0258 12.4636 79.1957 12.4636C80.3655 12.4636 81.4046 12.7282 82.3127 13.2572C83.2363 13.7712 83.9521 14.4968 84.46 15.4341C84.9834 16.3713 85.2451 17.4446 85.2451 18.654ZM79.1957 14.3003C78.1336 14.3003 77.2408 14.6178 76.5173 15.2527C75.8093 15.8876 75.3937 16.719 75.2705 17.747H83.1209C82.9977 16.7341 82.5744 15.9103 81.851 15.2753C81.1429 14.6253 80.2578 14.3003 79.1957 14.3003Z" fill="#07071A"/>
<path d="M88.323 7.76982H90.5396V24.5949H88.323V7.76982Z" fill="#07071A"/>
<path d="M94.7717 7.76982H96.9883V24.5949H94.7717V7.76982Z" fill="#07071A"/>
<path d="M101.221 12.577H103.437V24.5949H101.221V12.577ZM102.329 10.2641C101.898 10.2641 101.536 10.1281 101.244 9.85595C100.967 9.58384 100.828 9.25127 100.828 8.85823C100.828 8.46519 100.967 8.13262 101.244 7.86052C101.536 7.5733 101.898 7.42969 102.329 7.42969C102.76 7.42969 103.114 7.56574 103.391 7.83784C103.683 8.09483 103.83 8.41984 103.83 8.81288C103.83 9.22104 103.683 9.56873 103.391 9.85595C103.114 10.1281 102.76 10.2641 102.329 10.2641Z" fill="#07071A"/>
<path d="M113.003 24.731C111.756 24.731 110.64 24.4664 109.655 23.9373C108.685 23.4082 107.923 22.6826 107.369 21.7605C106.815 20.8232 106.538 19.7651 106.538 18.5859C106.538 17.4068 106.815 16.3562 107.369 15.4341C107.923 14.4968 108.685 13.7712 109.655 13.2572C110.64 12.7282 111.756 12.4636 113.003 12.4636C114.111 12.4636 115.096 12.6828 115.958 13.1212C116.836 13.5596 117.513 14.1945 117.99 15.0259L116.305 16.0917C115.92 15.5172 115.443 15.0864 114.873 14.7992C114.304 14.5119 113.672 14.3683 112.98 14.3683C112.179 14.3683 111.456 14.5422 110.809 14.8899C110.178 15.2376 109.678 15.7364 109.309 16.3864C108.955 17.0213 108.778 17.7545 108.778 18.5859C108.778 19.4325 108.955 20.1808 109.309 20.8308C109.678 21.4657 110.178 21.957 110.809 22.3047C111.456 22.6524 112.179 22.8262 112.98 22.8262C113.672 22.8262 114.304 22.6826 114.873 22.3954C115.443 22.1082 115.92 21.6774 116.305 21.1029L117.99 22.146C117.513 22.9774 116.836 23.6199 115.958 24.0734C115.096 24.5118 114.111 24.731 113.003 24.731Z" fill="#07071A"/>
<path d="M131.739 18.654C131.739 18.8203 131.724 19.0395 131.693 19.3116H121.765C121.903 20.3697 122.373 21.2238 123.173 21.8739C123.989 22.5088 124.997 22.8262 126.198 22.8262C127.66 22.8262 128.838 22.3425 129.731 21.375L130.954 22.7809C130.4 23.4158 129.707 23.8995 128.876 24.2321C128.06 24.5647 127.145 24.731 126.129 24.731C124.836 24.731 123.689 24.474 122.688 23.96C121.688 23.4309 120.91 22.6977 120.356 21.7605C119.818 20.8232 119.548 19.7651 119.548 18.5859C119.548 17.4219 119.81 16.3713 120.333 15.4341C120.872 14.4968 121.603 13.7712 122.527 13.2572C123.466 12.7282 124.52 12.4636 125.69 12.4636C126.86 12.4636 127.899 12.7282 128.807 13.2572C129.731 13.7712 130.446 14.4968 130.954 15.4341C131.478 16.3713 131.739 17.4446 131.739 18.654ZM125.69 14.3003C124.628 14.3003 123.735 14.6178 123.012 15.2527C122.303 15.8876 121.888 16.719 121.765 17.747H129.615C129.492 16.7341 129.069 15.9103 128.345 15.2753C127.637 14.6253 126.752 14.3003 125.69 14.3003Z" fill="#07071A"/>
<path d="M145.877 18.654C145.877 18.8203 145.862 19.0395 145.831 19.3116H135.902C136.041 20.3697 136.51 21.2238 137.311 21.8739C138.127 22.5088 139.135 22.8262 140.336 22.8262C141.798 22.8262 142.975 22.3425 143.868 21.375L145.092 22.7809C144.538 23.4158 143.845 23.8995 143.014 24.2321C142.198 24.5647 141.282 24.731 140.266 24.731C138.973 24.731 137.826 24.474 136.826 23.96C135.825 23.4309 135.048 22.6977 134.494 21.7605C133.955 20.8232 133.686 19.7651 133.686 18.5859C133.686 17.4219 133.947 16.3713 134.471 15.4341C135.01 14.4968 135.741 13.7712 136.664 13.2572C137.603 12.7282 138.658 12.4636 139.828 12.4636C140.997 12.4636 142.036 12.7282 142.945 13.2572C143.868 13.7712 144.584 14.4968 145.092 15.4341C145.615 16.3713 145.877 17.4446 145.877 18.654ZM139.828 14.3003C138.765 14.3003 137.873 14.6178 137.149 15.2527C136.441 15.8876 136.026 16.719 135.902 17.747H143.753C143.63 16.7341 143.206 15.9103 142.483 15.2753C141.775 14.6253 140.89 14.3003 139.828 14.3003Z" fill="#07071A"/>
<path d="M160.499 7.76982V24.5949H158.375V22.6902C157.883 23.3553 157.259 23.8617 156.505 24.2094C155.751 24.5571 154.92 24.731 154.011 24.731C152.826 24.731 151.764 24.474 150.825 23.96C149.886 23.446 149.147 22.728 148.609 21.8058C148.085 20.8686 147.823 19.7953 147.823 18.5859C147.823 17.3766 148.085 16.3109 148.609 15.3887C149.147 14.4666 149.886 13.7485 150.825 13.2346C151.764 12.7206 152.826 12.4636 154.011 12.4636C154.889 12.4636 155.697 12.6299 156.436 12.9625C157.175 13.2799 157.79 13.7561 158.283 14.391V7.76982H160.499ZM154.196 22.8262C154.966 22.8262 155.666 22.6524 156.297 22.3047C156.928 21.9419 157.421 21.443 157.775 20.8081C158.129 20.1581 158.306 19.4174 158.306 18.5859C158.306 17.7545 158.129 17.0213 157.775 16.3864C157.421 15.7364 156.928 15.2376 156.297 14.8899C155.666 14.5422 154.966 14.3683 154.196 14.3683C153.411 14.3683 152.703 14.5422 152.072 14.8899C151.456 15.2376 150.964 15.7364 150.594 16.3864C150.24 17.0213 150.063 17.7545 150.063 18.5859C150.063 19.4174 150.24 20.1581 150.594 20.8081C150.964 21.443 151.456 21.9419 152.072 22.3047C152.703 22.6524 153.411 22.8262 154.196 22.8262Z" fill="#07071A"/>
<path d="M0.5 9.63636C0.5 8.63221 1.33239 7.81818 2.3592 7.81818H3.10288V16.1818H0.5V9.63636Z" fill="#07071A"/>
<path d="M29.3184 12H30.062C31.0888 12 31.9212 12.814 31.9212 13.8182V21.4545H29.3184V12Z" fill="#07071A"/>
<path d="M5.89258 3.27286C5.89258 2.77078 6.30877 2.36377 6.82218 2.36377H8.49546V16.7274H5.89258V3.27286Z" fill="#07071A"/>
<path d="M11.2832 0.909223C11.2832 0.607977 11.5329 0.36377 11.841 0.36377H13.8861V24.3638H11.2832V0.909223Z" fill="#07071A"/>
<path d="M23.9258 2.36364H25.5991C26.1125 2.36364 26.5287 2.77065 26.5287 3.27273V26.3636H23.9258V2.36364Z" fill="#07071A"/>
<path d="M19.2488 10.803C19.3034 10.9032 19.3307 11.0556 19.3307 11.26V11.9631C19.3293 12.1675 19.3014 12.3179 19.2468 12.4143C19.1922 12.5093 19.1076 12.5569 18.9931 12.5569C18.8746 12.5569 18.7881 12.508 18.7335 12.4104C18.6789 12.3114 18.6516 12.1558 18.6516 11.9436V11.217C18.6556 11.0269 18.6836 10.885 18.7355 10.7912C18.7888 10.6975 18.8733 10.6506 18.9891 10.6506C19.1076 10.6506 19.1942 10.7014 19.2488 10.803Z" fill="#07071A"/>
<path d="M19.3307 15.6236C19.3307 15.4192 19.3034 15.2669 19.2488 15.1666C19.1942 15.065 19.1076 15.0142 18.9891 15.0142C18.8733 15.0142 18.7888 15.0611 18.7355 15.1549C18.6836 15.2486 18.6556 15.3905 18.6516 15.5807V16.3072C18.6516 16.5195 18.6789 16.6751 18.7335 16.774C18.7881 16.8717 18.8746 16.9205 18.9931 16.9205C19.1076 16.9205 19.1922 16.873 19.2468 16.7779C19.3014 16.6816 19.3293 16.5312 19.3307 16.3267V15.6236Z" fill="#07071A"/>
<path d="M19.3307 24.3509C19.3307 24.1465 19.3034 23.9941 19.2488 23.8939C19.1942 23.7923 19.1076 23.7415 18.9891 23.7415C18.8733 23.7415 18.7888 23.7884 18.7355 23.8821C18.6836 23.9759 18.6556 24.1178 18.6516 24.3079V25.0345C18.6516 25.2467 18.6789 25.4023 18.7335 25.5013C18.7881 25.5989 18.8746 25.6478 18.9931 25.6478C19.1076 25.6478 19.1922 25.6002 19.2468 25.5052C19.3014 25.4088 19.3293 25.2584 19.3307 25.054V24.3509Z" fill="#07071A"/>
<path d="M19.2488 28.2575C19.3034 28.3578 19.3307 28.5101 19.3307 28.7145V29.4177C19.3293 29.6221 19.3014 29.7725 19.2468 29.8688C19.1922 29.9639 19.1076 30.0114 18.9931 30.0114C18.8746 30.0114 18.7881 29.9626 18.7335 29.8649C18.6789 29.766 18.6516 29.6104 18.6516 29.3981V28.6716C18.6556 28.4815 18.6836 28.3395 18.7355 28.2458C18.7888 28.152 18.8733 28.1052 18.9891 28.1052C19.1076 28.1052 19.1942 28.1559 19.2488 28.2575Z" fill="#07071A"/>
<path fill-rule="evenodd" clip-rule="evenodd" d="M17.2335 0C16.9255 0 16.6758 0.244208 16.6758 0.545454V32H21.1379V0.545455C21.1379 0.244208 20.8881 0 20.5801 0H17.2335ZM19.4764 4.29834H18.8014V2.19678L18.1383 2.38623V1.88623L19.4145 1.45459H19.4764V4.29834ZM19.4764 8.66198H18.8014V6.56041L18.1383 6.74987V6.24987L19.4145 5.81823H19.4764V8.66198ZM19.7381 12.7522C19.9152 12.5438 20.0037 12.2476 20.0037 11.8635V11.3459C20.0037 10.9631 19.9152 10.6669 19.7381 10.4573C19.561 10.2476 19.3113 10.1428 18.9891 10.1428C18.6669 10.1428 18.4173 10.247 18.2402 10.4553C18.0644 10.6636 17.9766 10.9599 17.9766 11.344V11.8635C17.9766 12.245 18.0651 12.5406 18.2422 12.7502C18.4193 12.9599 18.6696 13.0647 18.9931 13.0647C19.314 13.0647 19.5623 12.9605 19.7381 12.7522ZM20.0037 16.2271C20.0037 16.6113 19.9152 16.9075 19.7381 17.1158C19.5623 17.3241 19.314 17.4283 18.9931 17.4283C18.6696 17.4283 18.4193 17.3235 18.2422 17.1139C18.0651 16.9042 17.9766 16.6086 17.9766 16.2271V15.7076C17.9766 15.3235 18.0644 15.0273 18.2402 14.8189C18.4173 14.6106 18.6669 14.5064 18.9891 14.5064C19.3113 14.5064 19.561 14.6113 19.7381 14.8209C19.9152 15.0305 20.0037 15.3267 20.0037 15.7096V16.2271ZM18.8014 21.7529H19.4764V18.9091H19.4145L18.1383 19.3408V19.8408L18.8014 19.6513V21.7529ZM20.0037 24.9544C20.0037 25.3385 19.9152 25.6347 19.7381 25.8431C19.5623 26.0514 19.314 26.1556 18.9931 26.1556C18.6696 26.1556 18.4193 26.0508 18.2422 25.8411C18.0651 25.6315 17.9766 25.3359 17.9766 24.9544V24.4349C17.9766 24.0508 18.0644 23.7545 18.2402 23.5462C18.4173 23.3379 18.6669 23.2337 18.9891 23.2337C19.3113 23.2337 19.561 23.3385 19.7381 23.5482C19.9152 23.7578 20.0037 24.054 20.0037 24.4368V24.9544ZM19.7381 30.2067C19.9152 29.9984 20.0037 29.7022 20.0037 29.318V28.8005C20.0037 28.4177 19.9152 28.1214 19.7381 27.9118C19.561 27.7022 19.3113 27.5973 18.9891 27.5973C18.6669 27.5973 18.4173 27.7015 18.2402 27.9098C18.0644 28.1182 17.9766 28.4144 17.9766 28.7985V29.318C17.9766 29.6996 18.0651 29.9951 18.2422 30.2048C18.4193 30.4144 18.6696 30.5192 18.9931 30.5192C19.314 30.5192 19.5623 30.4151 19.7381 30.2067Z" fill="#07071A"/>
</svg>
